<svg id="Layer_1" data-name="Layer 1" xmlns="http://www.w3.org/2000/svg" viewBox="0 0 80.56 59.65"><defs><style>.cls-1,.cls-2{fill:#fff;}.cls-1,.cls-2,.cls-3,.cls-4{stroke:#231f20;stroke-miterlimit:10;}.cls-2,.cls-3{stroke-width:2px;}.cls-3{fill:none;}.cls-4{fill:#231f20;stroke-width:3px;}</style></defs><path class="cls-1" d="M64,63" transform="translate(-23.93 -38.47)"/><path class="cls-2" d="M92.26,92.87c0,2.35-12.65,4.25-28.26,4.25s-28.26-1.9-28.26-4.25" transform="translate(-23.93 -38.47)"/><line class="cls-3" x1="11.81" y1="54.4" x2="11.81" y2="29.13"/><path class="cls-2" d="M102.21,62.61,66.07,77.75a7.66,7.66,0,0,1-4.14,0L25.79,62.61a2.93,2.93,0,0,1,0-4.14L61.93,40.33a2.93,2.93,0,0,1,4.14,0l36.14,18.14A2.93,2.93,0,0,1,102.21,62.61Z" transform="translate(-23.93 -38.47)"/><line class="cls-3" x1="68.32" y1="54.4" x2="68.32" y2="29.13"/><line class="cls-3" x1="76.35" y1="25.53" x2="76.35" y2="41.77"/><circle class="cls-4" cx="76.35" cy="43.14" r="2.71"/><path class="cls-3" d="M100.35,90.49h0c-.78,0-1.41-.87-1.41-2V82.27c0-1.08.63-2,1.41-2h0c.78,0,1.41.88,1.41,2v6.26C101.76,89.62,101.13,90.49,100.35,90.49Z" transform="translate(-23.93 -38.47)"/></svg>